<svg width="37" height="37" viewBox="0 0 37 37" fill="none" xmlns="http://www.w3.org/2000/svg">
<g clip-path="url(#clip0_173_205)">
<path d="M32.5306 17.3382H36.2306C36.1177 15.4437 35.7005 13.5797 34.9948 11.8178L31.7462 13.6937C32.1606 14.8463 32.4326 16.0673 32.5306 17.3382ZM26.0871 2.39577C24.2891 1.53942 22.3585 0.995155 20.378 0.786274V4.52512C21.7084 4.69877 23.0069 5.06327 24.2334 5.60737L26.0871 2.39577ZM30.0479 10.4007L33.2688 8.54147C32.1703 6.9215 30.8128 5.49334 29.2506 4.31422L27.3895 7.53692C28.4042 8.36357 29.2989 9.32742 30.0479 10.4007ZM18.5261 32.5064C14.7972 32.5064 11.221 31.0251 8.58419 28.3883C5.94743 25.7515 4.46611 22.1753 4.46611 18.4464C4.46611 11.3091 9.78856 5.42977 16.678 4.52327V0.784424C7.73691 1.70942 0.766113 9.26297 0.766113 18.4464C0.76587 20.779 1.22513 23.0888 2.11766 25.2438C3.01019 27.3989 4.31851 29.3571 5.9679 31.0064C7.61729 32.6558 9.57543 33.9641 11.7305 34.8567C13.8856 35.7492 16.1954 36.2085 18.528 36.2082C27.4524 36.2082 34.8209 29.6167 36.0771 21.0382H32.3382C31.1209 27.5632 25.4044 32.5064 18.5261 32.5064Z" fill="white"/>
</g>
<defs>
<clipPath id="clip0_173_205">
<rect width="37" height="37" fill="white"/>
</clipPath>
</defs>
</svg>
