<svg width="32" height="32" viewBox="0 0 32 32" fill="none" xmlns="http://www.w3.org/2000/svg">
<path d="M16 0.15625C7.47256 0.15625 0.5625 7.0675 0.5625 15.5938C0.5625 24.12 7.47256 31.0312 16 31.0312C24.5251 31.0312 31.4375 24.12 31.4375 15.5938C31.4375 7.0675 24.5262 0.15625 16 0.15625ZM15.8753 28.0946C8.989 28.0946 3.40656 22.5121 3.40656 15.6258C3.40656 8.7395 8.989 3.15706 15.8753 3.15706C22.7604 3.15706 28.3441 8.7395 28.3441 15.6258C28.3441 22.5121 22.7604 28.0946 15.8753 28.0946ZM19.4794 16.3431H15.9406V10.3676C15.9406 9.71919 15.4146 9.19194 14.7662 9.19194C14.1178 9.19194 13.5906 9.718 13.5906 10.3676V17.5175C13.5906 18.1671 14.1166 18.6919 14.7662 18.6919H19.4794C20.1289 18.6919 20.655 18.1671 20.655 17.5175C20.655 16.8691 20.1289 16.3431 19.4794 16.3431Z" fill="white" stroke="white" stroke-width="0.00064"/>
</svg>
