<svg width="33" height="33" viewBox="0 0 33 33" fill="none" xmlns="http://www.w3.org/2000/svg">
<path d="M31.625 13.75H4.125M23.9861 2.75V8.25M11.7639 2.75V8.25M15.5833 19.25L17.875 17.875V24.75M15.9653 24.75H19.7847M11.4583 30.25H24.2917C26.8586 30.25 28.142 30.25 29.1225 29.8004C29.9849 29.4049 30.686 28.7739 31.1254 27.9977C31.625 27.1153 31.625 25.9603 31.625 23.65V12.1C31.625 9.78978 31.625 8.63467 31.1254 7.75229C30.686 6.97612 29.9849 6.34508 29.1225 5.9496C28.142 5.5 26.8586 5.5 24.2917 5.5H11.4583C8.89142 5.5 7.60797 5.5 6.62755 5.9496C5.76513 6.34508 5.06397 6.97612 4.62455 7.75229C4.125 8.63467 4.125 9.78978 4.125 12.1V23.65C4.125 25.9603 4.125 27.1153 4.62455 27.9977C5.06397 28.7739 5.76513 29.4049 6.62755 29.8004C7.60797 30.25 8.89142 30.25 11.4583 30.25Z" stroke="#5F6ED1" stroke-width="2" stroke-linecap="round" stroke-linejoin="round"/>
</svg>
