<svg width="47" height="19" viewBox="0 0 47 19" fill="none" xmlns="http://www.w3.org/2000/svg">
<path d="M31.6082 10.8146C31.0522 14.7016 27.7094 17.6896 23.6686 17.6896C19.6279 17.6896 16.285 14.7016 15.729 10.8146H2.99596C2.36313 10.8146 1.85012 10.3016 1.85012 9.66878C1.85012 9.03596 2.36313 8.52295 2.99596 8.52295L15.729 8.52295C16.285 4.63595 19.6279 1.64795 23.6686 1.64795C27.7094 1.64795 31.0522 4.63595 31.6082 8.52295H44.2936C44.9264 8.52295 45.4395 9.03596 45.4395 9.66878C45.4395 10.3016 44.9264 10.8146 44.2936 10.8146H31.6082ZM17.9395 9.66878C17.9395 12.8329 20.5045 15.3979 23.6686 15.3979C26.8328 15.3979 29.3978 12.8329 29.3978 9.66878C29.3978 6.50465 26.8328 3.93962 23.6686 3.93962C20.5045 3.93962 17.9395 6.50465 17.9395 9.66878Z" fill="white" stroke="white" stroke-width="2.112"/>
</svg>
