<svg width="37" height="37" viewBox="0 0 37 37" fill="none" xmlns="http://www.w3.org/2000/svg">
<path d="M13.125 14.9166L18.9624 19.2947C19.7122 19.8569 20.7686 19.7464 21.3858 19.0412L32.8333 5.95825" stroke="white" stroke-width="3" stroke-linecap="round"/>
<path d="M34.625 18.5C34.625 21.8692 33.5697 25.1537 31.6071 27.8925C29.6447 30.6312 26.8735 32.6862 23.6833 33.7693C20.4929 34.8522 17.0434 34.9086 13.8192 33.9307C10.595 32.9527 7.75823 30.9892 5.70718 28.3164C3.65613 25.6434 2.49388 22.3951 2.38364 19.0276C2.2734 15.6602 3.22072 12.3428 5.09255 9.54144C6.96439 6.74004 9.66671 4.59533 12.82 3.40853C15.9732 2.22171 19.4191 2.05243 22.6735 2.92445" stroke="white" stroke-width="3" stroke-linecap="round"/>
</svg>
