<svg width="22" height="22" viewBox="0 0 22 22" fill="none" xmlns="http://www.w3.org/2000/svg">
<path d="M2.16722 11.878C1.8194 9.46065 1.64549 8.25202 2.14092 7.21862C2.63634 6.18522 3.69083 5.55706 5.79983 4.30074L7.06926 3.54455C8.98445 2.40368 9.94205 1.83325 11.0002 1.83325C12.0583 1.83325 13.0159 2.40368 14.931 3.54455L16.2005 4.30074C18.3095 5.55706 19.364 6.18522 19.8594 7.21862C20.3548 8.25202 20.1809 9.46065 19.8331 11.878L19.5776 13.6539C19.1307 16.7591 18.9073 18.3116 17.8302 19.2391C16.7531 20.1666 15.1734 20.1666 12.0141 20.1666H9.98624C6.82692 20.1666 5.24724 20.1666 4.1701 19.2391C3.09296 18.3116 2.86956 16.7591 2.42276 13.6539L2.16722 11.878Z" stroke="#1C274C" stroke-width="1.176"/>
<path d="M13.75 16.5H8.25" stroke="#1C274C" stroke-width="1.176" stroke-linecap="round"/>
</svg>
