<svg width="39" height="43" viewBox="0 0 39 43" fill="none" xmlns="http://www.w3.org/2000/svg">
<path d="M4.89328 33.7282C5.09313 33.7282 5.29458 33.6644 5.4649 33.5325C5.87312 33.2164 5.94781 32.6293 5.63176 32.2211C3.23722 29.1285 1.97162 25.4212 1.97162 21.4998C1.97162 11.8346 9.83482 3.97137 19.5 3.97137C21.7747 3.97137 23.9873 4.40034 26.0764 5.24651C26.5548 5.44029 27.0998 5.20949 27.2937 4.73098C27.4874 4.25246 27.2566 3.70748 26.7781 3.5137C24.4651 2.57677 22.0164 2.10181 19.5 2.10181C8.80394 2.10181 0.102051 10.8037 0.102051 21.4998C0.102051 25.8393 1.50301 29.9424 4.15349 33.3656C4.33764 33.6036 4.61387 33.7282 4.89328 33.7282Z" fill="#5F6ED1"/>
<path d="M34.847 9.63461C34.5308 9.2263 33.9438 9.15161 33.5355 9.46766C33.1273 9.78371 33.0525 10.3708 33.3686 10.7791C35.7628 13.8715 37.0283 17.5787 37.0283 21.4999C37.0283 31.1651 29.1651 39.0283 19.4999 39.0283C17.2254 39.0283 15.0129 38.5993 12.9241 37.7533C12.4455 37.5597 11.9006 37.7904 11.7068 38.2689C11.513 38.7474 11.7438 39.2924 12.2223 39.4861C14.5352 40.4229 16.9838 40.8979 19.5 40.8979C30.196 40.8979 38.8979 32.196 38.8979 21.4999C38.8979 17.1606 37.4972 13.0577 34.847 9.63461Z" fill="#5F6ED1"/>
<path d="M31.4744 21.2112C31.3494 20.826 30.9904 20.5651 30.5854 20.5651H23.7844L37.5021 1.48031C37.7699 1.10771 37.7277 0.595916 37.4024 0.2722C37.0772 -0.0514214 36.5653 -0.0912431 36.1939 0.178348L7.86565 20.7436C7.53782 20.9815 7.4006 21.4035 7.52567 21.7887C7.65074 22.174 8.0097 22.4349 8.41474 22.4349H15.2157L1.498 41.5196C1.23019 41.8922 1.27244 42.404 1.59765 42.7277C1.77853 42.9077 2.01718 42.9999 2.25733 42.9999C2.44896 42.9999 2.64143 42.9412 2.80623 42.8215L31.1344 22.2563C31.4623 22.0184 31.5995 21.5965 31.4744 21.2112ZM6.40075 37.9019L17.7978 22.0455C18.0024 21.7608 18.0306 21.3855 17.8705 21.0735C17.7106 20.7614 17.3894 20.5651 17.0388 20.5651H11.2936L32.5993 5.09792L21.2023 20.9544C20.9977 21.2391 20.9695 21.6144 21.1296 21.9264C21.2895 22.2385 21.6107 22.4348 21.9613 22.4348H27.7065L6.40075 37.9019Z" fill="#5F6ED1"/>
</svg>
