<svg width="22" height="22" viewBox="0 0 22 22" fill="none" xmlns="http://www.w3.org/2000/svg">
<path d="M17.7798 8.45775V6.31549C17.7798 6.05237 17.7185 5.79285 17.6008 5.5575L16.9323 4.22046H12.695L11.8476 5.91537H3.37301C2.90495 5.91537 2.52555 6.2948 2.52555 6.76283V8.45775V16.0849C2.52555 17.021 3.28436 17.7798 4.22046 17.7798H5.91538" stroke="#1C274C" stroke-linecap="round" stroke-linejoin="round"/>
<path d="M6.56265 8.45776H19.2126C19.7714 8.45776 20.1772 8.9891 20.0302 9.52819L18.1204 16.5308C17.9193 17.2683 17.2495 17.7798 16.4852 17.7798H4.48248C3.92376 17.7798 3.51791 17.2484 3.66494 16.7094L5.74503 9.08224C5.84562 8.71354 6.18045 8.45776 6.56265 8.45776Z" stroke="#1C274C"/>
</svg>
