<svg width="32" height="32" viewBox="0 0 32 32" fill="none" xmlns="http://www.w3.org/2000/svg">
<path d="M15.7998 0.880371C7.27237 0.880371 0.362305 7.79162 0.362305 16.3179C0.362305 24.8441 7.27237 31.7554 15.7998 31.7554C24.3249 31.7554 31.2373 24.8441 31.2373 16.3179C31.2373 7.79162 24.3261 0.880371 15.7998 0.880371ZM15.6751 28.8187C8.78881 28.8187 3.20637 23.2362 3.20637 16.3499C3.20637 9.46362 8.78881 3.88118 15.6751 3.88118C22.5602 3.88118 28.1439 9.46362 28.1439 16.3499C28.1439 23.2362 22.5602 28.8187 15.6751 28.8187ZM19.2792 17.0672H15.7404V11.0917C15.7404 10.4433 15.2144 9.91606 14.566 9.91606C13.9176 9.91606 13.3904 10.4421 13.3904 11.0917V18.2416C13.3904 18.8912 13.9164 19.4161 14.566 19.4161H19.2792C19.9287 19.4161 20.4548 18.8912 20.4548 18.2416C20.4548 17.5932 19.9287 17.0672 19.2792 17.0672Z" fill="#28B446" stroke="#28B446" stroke-width="0.00064"/>
</svg>
