<svg width="18" height="21" viewBox="0 0 21 25" fill="none" xmlns="http://www.w3.org/2000/svg">
<path d="M16.517 8.9949C18.3767 10.1572 19.3065 10.7383 19.6254 11.4824C19.9039 12.1321 19.9039 12.8677 19.6254 13.5176C19.3065 14.2616 18.3767 14.8427 16.517 16.0051L7.7825 21.4642C5.71848 22.7541 4.68646 23.3992 3.83481 23.3306C3.09247 23.2709 2.41198 22.8939 1.96793 22.296C1.4585 21.6101 1.4585 20.3931 1.4585 17.9591V7.04086C1.4585 4.60687 1.4585 3.38988 1.96793 2.70397C2.41198 2.10608 3.09247 1.72893 3.83481 1.66924C4.68646 1.60078 5.71848 2.24579 7.7825 3.5358L16.517 8.9949Z" stroke="white" stroke-width="2" stroke-linejoin="round"/>
</svg>
