<svg width="38" height="38" viewBox="0 0 38 38" fill="none" xmlns="http://www.w3.org/2000/svg">
<path d="M29.7344 14.9744V11.5825C29.7344 11.1659 29.6374 10.755 29.4511 10.3824L28.3926 8.26538H21.6835L20.3417 10.949H6.92364C6.18256 10.949 5.58183 11.5498 5.58183 12.2908V14.9744V27.0507C5.58183 28.5329 6.78329 29.7343 8.26545 29.7343H10.9491" stroke="white" stroke-width="2" stroke-linecap="round" stroke-linejoin="round"/>
<path d="M11.974 14.9744H32.0031C32.8879 14.9744 33.5305 15.8157 33.2977 16.6692L30.2738 27.7567C29.9554 28.9243 28.8949 29.7343 27.6847 29.7343H8.68044C7.79578 29.7343 7.15319 28.8929 7.38599 28.0394L10.6795 15.9631C10.8387 15.3794 11.3689 14.9744 11.974 14.9744Z" stroke="white" stroke-width="2"/>
</svg>
