<svg width="40" height="16" viewBox="0 0 40 16" fill="none" xmlns="http://www.w3.org/2000/svg">
<path d="M26.9423 8.94401C26.4576 12.3126 23.5434 14.902 20.0208 14.902C16.4982 14.902 13.5839 12.3126 13.0992 8.94401L1.99891 8.94401C1.44723 8.94401 1 8.49943 1 7.95101C1 7.40259 1.44723 6.95801 1.99891 6.95801L13.0992 6.95801C13.5839 3.58945 16.4982 1 20.0208 1C23.5434 1 26.4576 3.58945 26.9423 6.95801L38.0011 6.95801C38.5528 6.95801 39 7.40259 39 7.95101C39 8.49943 38.5528 8.94401 38.0011 8.94401H26.9423ZM15.0262 7.95101C15.0262 10.6931 17.2624 12.916 20.0208 12.916C22.7792 12.916 25.0153 10.6931 25.0153 7.95101C25.0153 5.20891 22.7792 2.986 20.0208 2.986C17.2624 2.986 15.0262 5.20891 15.0262 7.95101Z" fill="#6AABD3" stroke="#6AABD3" stroke-width="2"/>
</svg>
