<svg width="25" height="25" viewBox="0 0 25 25" fill="none" xmlns="http://www.w3.org/2000/svg">
<path opacity="0.34" d="M12.5 15.625C14.2259 15.625 15.625 14.2259 15.625 12.5C15.625 10.7741 14.2259 9.375 12.5 9.375C10.7741 9.375 9.375 10.7741 9.375 12.5C9.375 14.2259 10.7741 15.625 12.5 15.625Z" stroke="#292D32" stroke-width="1.5" stroke-miterlimit="10" stroke-linecap="round" stroke-linejoin="round"/>
<path d="M2.0835 13.4165V11.5832C2.0835 10.4999 2.96891 9.60408 4.06266 9.60408C5.94808 9.60408 6.71891 8.27075 5.771 6.63533C5.22933 5.69783 5.55225 4.47908 6.50016 3.93741L8.30224 2.90616C9.12516 2.41658 10.1877 2.70825 10.6772 3.53116L10.7918 3.72908C11.7293 5.3645 13.271 5.3645 14.2189 3.72908L14.3335 3.53116C14.8231 2.70825 15.8856 2.41658 16.7085 2.90616L18.5106 3.93741C19.4585 4.47908 19.7814 5.69783 19.2397 6.63533C18.2918 8.27075 19.0627 9.60408 20.9481 9.60408C22.0314 9.60408 22.9272 10.4895 22.9272 11.5832V13.4165C22.9272 14.4999 22.0418 15.3957 20.9481 15.3957C19.0627 15.3957 18.2918 16.729 19.2397 18.3645C19.7814 19.3124 19.4585 20.5207 18.5106 21.0624L16.7085 22.0936C15.8856 22.5832 14.8231 22.2915 14.3335 21.4686L14.2189 21.2707C13.2814 19.6353 11.7397 19.6353 10.7918 21.2707L10.6772 21.4686C10.1877 22.2915 9.12516 22.5832 8.30224 22.0936L6.50016 21.0624C5.55225 20.5207 5.22933 19.302 5.771 18.3645C6.71891 16.729 5.94808 15.3957 4.06266 15.3957C2.96891 15.3957 2.0835 14.4999 2.0835 13.4165Z" stroke="#292D32" stroke-width="1.5" stroke-miterlimit="10" stroke-linecap="round" stroke-linejoin="round"/>
</svg>
