<svg width="25" height="23" viewBox="0 0 25 23" fill="none" xmlns="http://www.w3.org/2000/svg">
<path d="M17.3525 8.89952C18.8522 9.76185 19.602 10.193 19.8592 10.7451C20.0838 11.2271 20.0838 11.7729 19.8592 12.255C19.602 12.807 18.8522 13.2382 17.3525 14.1006L10.3085 18.1509C8.64396 19.108 7.81169 19.5866 7.12488 19.5357C6.52621 19.4914 5.97743 19.2117 5.61933 18.7681C5.2085 18.2592 5.2085 17.3563 5.2085 15.5504V7.44975C5.2085 5.64388 5.2085 4.74096 5.61933 4.23206C5.97743 3.78846 6.52621 3.50864 7.12488 3.46435C7.81169 3.41356 8.64396 3.89212 10.3085 4.84922L17.3525 8.89952Z" stroke="white" stroke-width="1.104" stroke-linejoin="round"/>
</svg>
