<svg width="49" height="49" viewBox="0 0 49 49" fill="none" xmlns="http://www.w3.org/2000/svg">
<g clip-path="url(#clip0_38_230)">
<path d="M24.5001 42.2412C14.7176 42.2412 6.75879 34.2825 6.75879 24.4999C6.75879 14.7173 14.7176 6.75854 24.5001 6.75854C34.2827 6.75854 42.2415 14.7173 42.2415 24.4999C42.2415 34.2825 34.2827 42.2412 24.5001 42.2412ZM24.5001 8.44818C15.6489 8.44818 8.44843 15.6488 8.44843 24.4999C8.44843 33.351 15.6489 40.5516 24.5001 40.5516C33.3513 40.5516 40.5518 33.3511 40.5518 24.4999C40.5518 15.6487 33.3513 8.44818 24.5001 8.44818Z" fill="#7080F0"/>
<path d="M24.4999 32.1033C20.3075 32.1033 16.8965 28.6923 16.8965 24.4999C16.8965 20.3075 20.3075 16.8965 24.4999 16.8965C28.6923 16.8965 32.1033 20.3075 32.1033 24.4999C32.1033 28.6923 28.6923 32.1033 24.4999 32.1033ZM24.4999 18.5861C21.239 18.5861 18.5861 21.239 18.5861 24.4999C18.5861 27.7608 21.239 30.4137 24.4999 30.4137C27.7608 30.4137 30.4137 27.7608 30.4137 24.4999C30.4137 21.239 27.7608 18.5861 24.4999 18.5861Z" fill="#7080F0"/>
<path d="M24.4999 32.1033C20.3075 32.1033 16.8965 28.6923 16.8965 24.4999C16.8965 20.3075 20.3075 16.8965 24.4999 16.8965C28.6923 16.8965 32.1033 20.3075 32.1033 24.4999C32.1033 28.6923 28.6923 32.1033 24.4999 32.1033ZM24.4999 18.5861C21.239 18.5861 18.5861 21.239 18.5861 24.4999C18.5861 27.7608 21.239 30.4137 24.4999 30.4137C27.7608 30.4137 30.4137 27.7608 30.4137 24.4999C30.4137 21.239 27.7608 18.5861 24.4999 18.5861Z" fill="#7080F0"/>
<path d="M24.5001 45.6208C12.8541 45.6208 3.37939 36.1462 3.37939 24.5001C3.37939 12.854 12.854 3.37939 24.5001 3.37939C36.1462 3.37939 45.6208 12.854 45.6208 24.5001C45.6208 36.1462 36.1461 45.6208 24.5001 45.6208ZM24.5001 5.06913C13.7859 5.06913 5.06913 13.7859 5.06913 24.5001C5.06913 35.2144 13.7859 43.9311 24.5001 43.9311C35.2144 43.9311 43.9311 35.2144 43.9311 24.5001C43.9311 13.7859 35.2144 5.06913 24.5001 5.06913Z" fill="#7080F0"/>
<path d="M24.5001 10.9828C24.0336 10.9828 23.6553 10.6045 23.6553 10.1379V0.844867C23.6553 0.378314 24.0336 0 24.5001 0C24.9667 0 25.345 0.378314 25.345 0.844867V10.1379C25.345 10.6045 24.9667 10.9828 24.5001 10.9828Z" fill="#7080F0"/>
<path d="M24.5001 48.9999C24.0336 48.9999 23.6553 48.6216 23.6553 48.155V38.862C23.6553 38.3954 24.0336 38.0171 24.5001 38.0171C24.9667 38.0171 25.345 38.3954 25.345 38.862V48.155C25.345 48.6216 24.9667 48.9999 24.5001 48.9999Z" fill="#7080F0"/>
<path d="M38.0171 24.4999C38.0171 24.0333 38.3954 23.655 38.862 23.655H48.155C48.6216 23.655 48.9999 24.0333 48.9999 24.4999C48.9999 24.9664 48.6216 25.3448 48.155 25.3448H38.862C38.3954 25.3448 38.0171 24.9664 38.0171 24.4999Z" fill="#7080F0"/>
<path d="M14.3623 24.4999C14.3623 24.0333 14.7406 23.655 15.2072 23.655H33.7934C34.2599 23.655 34.6383 24.0333 34.6383 24.4999C34.6383 24.9664 34.2599 25.3448 33.7934 25.3448H15.2072C14.7406 25.3448 14.3623 24.9664 14.3623 24.4999Z" fill="#7080F0"/>
<path d="M0 24.4999C0 24.0333 0.378314 23.655 0.844867 23.655H10.1379C10.6045 23.655 10.9828 24.0333 10.9828 24.4999C10.9828 24.9664 10.6045 25.3448 10.1379 25.3448H0.844867C0.378314 25.3448 0 24.9664 0 24.4999Z" fill="#7080F0"/>
<path d="M24.5001 14.3621C24.9667 14.3621 25.345 14.7404 25.345 15.2069V33.7931C25.345 34.2597 24.9667 34.638 24.5001 34.638C24.0336 34.638 23.6553 34.2597 23.6553 33.7931V15.2069C23.6553 14.7404 24.0336 14.3621 24.5001 14.3621Z" fill="#7080F0"/>
</g>
<defs>
<clipPath id="clip0_38_230">
<rect width="49" height="49" fill="white"/>
</clipPath>
</defs>
</svg>
