<svg width="33" height="33" viewBox="0 0 33 33" fill="none" xmlns="http://www.w3.org/2000/svg">
<g clip-path="url(#clip0_308_617)">
<path d="M4.23709 0.00323814C4.20627 0.00883876 4.17544 0.0172386 4.14742 0.0256392C3.81394 0.101243 3.57855 0.400857 3.58696 0.742473V7.19398H10.0435C10.3013 7.19678 10.5423 7.06237 10.674 6.83836C10.8029 6.61435 10.8029 6.33994 10.674 6.11593C10.5423 5.89192 10.3013 5.75751 10.0435 5.76031H5.96332C8.68156 3.10299 12.3946 1.45931 16.5 1.45931C24.8285 1.45931 31.5652 8.19083 31.5652 16.5128C31.5652 24.8348 24.8285 31.5663 16.5 31.5663C8.17154 31.5663 1.43478 24.8348 1.43478 16.5128C1.43478 14.0235 2.04849 11.6798 3.11617 9.61329L1.83832 8.96366C0.66695 11.2262 0 13.7939 0 16.5128C0 25.6105 7.3953 33 16.5 33C25.6047 33 33 25.6105 33 16.5128C33 7.41519 25.6047 0.0256392 16.5 0.0256392C12.0331 0.0256392 7.99219 1.82052 5.02174 4.70746V0.742473C5.03015 0.535264 4.94608 0.336454 4.79755 0.196447C4.64623 0.0536409 4.44166 -0.016363 4.23709 0.00323814ZM16.5 2.17614C16.1049 2.17614 15.7826 2.49816 15.7826 2.89297C15.7826 3.28779 16.1049 3.60981 16.5 3.60981C16.8951 3.60981 17.2174 3.28779 17.2174 2.89297C17.2174 2.49816 16.8951 2.17614 16.5 2.17614ZM23.3152 3.99063C22.9201 3.99063 22.5978 4.31264 22.5978 4.70746C22.5978 5.10228 22.9201 5.42429 23.3152 5.42429C23.7103 5.42429 24.0326 5.10228 24.0326 4.70746C24.0326 4.31264 23.7103 3.99063 23.3152 3.99063ZM28.3145 8.98606C27.9194 8.98606 27.5971 9.30808 27.5971 9.7029C27.5971 10.0977 27.9194 10.4197 28.3145 10.4197C28.7097 10.4197 29.0319 10.0977 29.0319 9.7029C29.0319 9.30808 28.7097 8.98606 28.3145 8.98606ZM11.7473 10.7109C9.75764 10.7109 8.33967 12.0074 8.33967 13.8695V13.8919H9.81929V13.8695C9.81929 12.7914 10.5647 12.0774 11.68 12.0774C12.7225 12.0774 13.5183 12.7662 13.5183 13.6903C13.5183 14.4323 13.1905 14.9699 11.837 16.3784L8.42935 19.9178V21.0602H15.2446V19.649H10.6039V19.537L12.8682 17.2521C14.5636 15.5384 15.0652 14.6703 15.0652 13.6007C15.0652 11.9346 13.6669 10.7109 11.7473 10.7109ZM21.2303 10.9574C19.4284 13.6539 17.9208 16.0032 17.0156 17.6553V19.1113H21.9477V21.0602H23.4497V19.1113H24.8621V17.7001H23.4497V10.9574H21.2303ZM21.8804 12.3462H21.9701V17.7449H18.5177V17.6329C19.7086 15.5664 20.88 13.7939 21.8804 12.3462ZM2.86957 15.796C2.47444 15.796 2.15217 16.118 2.15217 16.5128C2.15217 16.9076 2.47444 17.2297 2.86957 17.2297C3.26469 17.2297 3.58696 16.9076 3.58696 16.5128C3.58696 16.118 3.26469 15.796 2.86957 15.796ZM30.1304 15.796C29.7353 15.796 29.413 16.118 29.413 16.5128C29.413 16.9076 29.7353 17.2297 30.1304 17.2297C30.5256 17.2297 30.8478 16.9076 30.8478 16.5128C30.8478 16.118 30.5256 15.796 30.1304 15.796ZM4.68546 22.6059C4.29034 22.6059 3.96807 22.9279 3.96807 23.3227C3.96807 23.7176 4.29034 24.0396 4.68546 24.0396C5.08059 24.0396 5.40285 23.7176 5.40285 23.3227C5.40285 22.9279 5.08059 22.6059 4.68546 22.6059ZM28.3145 22.6059C27.9194 22.6059 27.5971 22.9279 27.5971 23.3227C27.5971 23.7176 27.9194 24.0396 28.3145 24.0396C28.7097 24.0396 29.0319 23.7176 29.0319 23.3227C29.0319 22.9279 28.7097 22.6059 28.3145 22.6059ZM9.68478 27.6013C9.28966 27.6013 8.96739 27.9234 8.96739 28.3182C8.96739 28.713 9.28966 29.035 9.68478 29.035C10.0799 29.035 10.4022 28.713 10.4022 28.3182C10.4022 27.9234 10.0799 27.6013 9.68478 27.6013ZM23.3152 27.6013C22.9201 27.6013 22.5978 27.9234 22.5978 28.3182C22.5978 28.713 22.9201 29.035 23.3152 29.035C23.7103 29.035 24.0326 28.713 24.0326 28.3182C24.0326 27.9234 23.7103 27.6013 23.3152 27.6013ZM16.5 29.4158C16.1049 29.4158 15.7826 29.7378 15.7826 30.1327C15.7826 30.5275 16.1049 30.8495 16.5 30.8495C16.8951 30.8495 17.2174 30.5275 17.2174 30.1327C17.2174 29.7378 16.8951 29.4158 16.5 29.4158Z" fill="#983BED" stroke="#983BED" stroke-width="0.8"/>
</g>
<defs>
<clipPath id="clip0_308_617">
<rect width="33" height="33" fill="white"/>
</clipPath>
</defs>
</svg>
