<svg width="24" height="24" viewBox="0 0 24 24" fill="none" xmlns="http://www.w3.org/2000/svg">
<g clip-path="url(#clip0_169_266)">
<path d="M10.2345 11.7344C10.2694 11.7693 10.2971 11.8107 10.316 11.8562C10.3349 11.9018 10.3447 11.9506 10.3447 11.9999C10.3447 12.0493 10.3349 12.0981 10.316 12.1437C10.2971 12.1892 10.2694 12.2306 10.2345 12.2654L6.6405 15.8594C6.58805 15.912 6.52117 15.9478 6.44834 15.9624C6.37551 15.9769 6.30001 15.9695 6.2314 15.941C6.1628 15.9126 6.10418 15.8644 6.06299 15.8026C6.02179 15.7408 5.99987 15.6682 6 15.5939V8.40594C5.99987 8.33168 6.02179 8.25905 6.06299 8.19725C6.10418 8.13546 6.1628 8.08729 6.2314 8.05886C6.30001 8.03042 6.37551 8.02299 6.44834 8.03752C6.52117 8.05204 6.58805 8.08786 6.6405 8.14044L10.2345 11.7344Z" fill="black"/>
<path d="M2.625 0H21.375C22.824 0 24 1.176 24 2.625V21.375C24 22.0712 23.7234 22.7389 23.2312 23.2312C22.7389 23.7234 22.0712 24 21.375 24H2.625C1.92881 24 1.26113 23.7234 0.768845 23.2312C0.276562 22.7389 0 22.0712 0 21.375L0 2.625C0 1.176 1.176 0 2.625 0ZM2.25 2.625V21.375C2.25 21.582 2.418 21.75 2.625 21.75H14.25V2.25H2.625C2.52554 2.25 2.43016 2.28951 2.35984 2.35984C2.28951 2.43016 2.25 2.52554 2.25 2.625ZM16.5 21.75H21.375C21.4745 21.75 21.5698 21.7105 21.6402 21.6402C21.7105 21.5698 21.75 21.4745 21.75 21.375V2.625C21.75 2.52554 21.7105 2.43016 21.6402 2.35984C21.5698 2.28951 21.4745 2.25 21.375 2.25H16.5V21.75Z" fill="black"/>
</g>
<defs>
<clipPath id="clip0_169_266">
<rect width="24" height="24" fill="white"/>
</clipPath>
</defs>
</svg>
